<svg width="1440" height="320" viewBox="0 0 1440 320" fill="none" xmlns="http://www.w3.org/2000/svg">
<path d="M0 160L60 165.3C120 171 240 181 360 176C480 171 600 149 720 149.3C840 149 960 171 1080 186.7C1200 203 1320 213 1380 218.7L1440 224V320H1380C1320 320 1200 320 1080 320C960 320 840 320 720 320C600 320 480 320 360 320C240 320 120 320 60 320H0V160Z" fill="#19111F"/>
<circle cx="136" cy="76" r="9" fill="#19111F"/>
<circle cx="141" cy="130" r="9" fill="#19111F"/>
<circle cx="87" cy="76" r="9" fill="#19111F"/>
<circle cx="51" cy="121" r="9" fill="#19111F"/>
<circle cx="33" cy="40" r="9" fill="#19111F"/>
<circle cx="181" cy="148" r="9" fill="#19111F"/>
<circle cx="190" cy="94" r="9" fill="#19111F"/>
<circle cx="96" cy="130" r="9" fill="#19111F"/>
<circle cx="292" cy="58" r="9" fill="#19111F"/>
<circle cx="444" cy="112" r="9" fill="#19111F"/>
<circle cx="550" cy="67" r="9" fill="#19111F"/>
<circle cx="748" cy="49" r="9" fill="#19111F"/>
<circle cx="757" cy="112" r="9" fill="#19111F"/>
<circle cx="854" cy="112" r="9" fill="#19111F"/>
<circle cx="933" cy="67" r="9" fill="#19111F"/>
<circle cx="960" cy="131" r="9" fill="#19111F"/>
<circle cx="1050" cy="58" r="9" fill="#19111F"/>
<circle cx="1087" cy="139" r="9" fill="#19111F"/>
<circle cx="1118" cy="85" r="9" fill="#19111F"/>
<circle cx="1212" cy="176" r="9" fill="#19111F"/>
<circle cx="1194" cy="112" r="9" fill="#19111F"/>
<circle cx="1309" cy="148" r="9" fill="#19111F"/>
<circle cx="1336" cy="185" r="9" fill="#19111F"/>
<circle cx="1383" cy="194" r="9" fill="#19111F"/>
<circle cx="1383" cy="140" r="9" fill="#19111F"/>
<circle cx="1383" cy="76" r="9" fill="#19111F"/>
<circle cx="1327" cy="103" r="9" fill="#19111F"/>
<circle cx="1257" cy="85" r="9" fill="#19111F"/>
<circle cx="1266" cy="151" r="9" fill="#19111F"/>
<circle cx="1033" cy="158" r="9" fill="#19111F"/>
<circle cx="1015" cy="94" r="9" fill="#19111F"/>
<circle cx="642" cy="103" r="9" fill="#19111F"/>
<circle cx="513" cy="121" r="9" fill="#19111F"/>
<circle cx="355" cy="94" r="9" fill="#19111F"/>
<circle cx="364" cy="140" r="9" fill="#19111F"/>
<circle cx="118" cy="219" r="9" fill="#050D18"/>
<circle cx="60" cy="194" r="9" fill="#050D18"/>
<circle cx="42" cy="226" r="9" fill="#050D18"/>
<circle cx="223" cy="235" r="9" fill="#050D18"/>
<circle cx="283" cy="203" r="9" fill="#050D18"/>
<circle cx="337" cy="244" r="9" fill="#050D18"/>
<circle cx="435" cy="208" r="9" fill="#050D18"/>
<circle cx="453" cy="244" r="9" fill="#050D18"/>
<circle cx="513" cy="199" r="9" fill="#050D18"/>
<circle cx="487" cy="271" r="9" fill="#050D18"/>
<circle cx="580" cy="183" r="9" fill="#050D18"/>
<circle cx="642" cy="176" r="9" fill="#050D18"/>
<circle cx="720" cy="174" r="9" fill="#050D18"/>
<circle cx="798" cy="174" r="9" fill="#050D18"/>
<circle cx="837" cy="199" r="9" fill="#050D18"/>
<circle cx="883" cy="183" r="9" fill="#050D18"/>
<circle cx="892" cy="212" r="9" fill="#050D18"/>
<circle cx="963" cy="199" r="9" fill="#050D18"/>
<circle cx="960" cy="235" r="9" fill="#050D18"/>
<circle cx="1039" cy="212" r="9" fill="#050D18"/>
<circle cx="1068" cy="244" r="9" fill="#050D18"/>
<circle cx="1110" cy="221" r="9" fill="#050D18"/>
<circle cx="1156" cy="244" r="9" fill="#050D18"/>
<circle cx="1198" cy="230" r="9" fill="#050D18"/>
<circle cx="1221" cy="262" r="9" fill="#050D18"/>
<circle cx="1300" cy="237" r="9" fill="#050D18"/>
<circle cx="1284" cy="266" r="9" fill="#050D18"/>
<circle cx="1345" cy="271" r="9" fill="#050D18"/>
<circle cx="1374" cy="248" r="9" fill="#050D18"/>
<circle cx="766" cy="199" r="9" fill="#050D18"/>
<circle cx="767" cy="248" r="9" fill="#050D18"/>
<circle cx="692" cy="210" r="9" fill="#050D18"/>
<circle cx="683" cy="246" r="9" fill="#050D18"/>
<circle cx="621" cy="203" r="9" fill="#050D18"/>
<circle cx="550" cy="208" r="9" fill="#050D18"/>
<circle cx="550" cy="262" r="9" fill="#050D18"/>
<circle cx="364" cy="208" r="9" fill="#050D18"/>
<circle cx="163" cy="201" r="9" fill="#050D18"/>
<circle cx="253" cy="140" r="9" fill="#19111F"/>
</svg>
